<?xml version="1.0" encoding="UTF-8" standalone="no"?>
<!DOCTYPE svg PUBLIC "-//W3C//DTD SVG 1.1//EN" "http://www.w3.org/Graphics/SVG/1.1/DTD/svg11.dtd">
<svg width="100%" height="100%" viewBox="0 0 1200 1200" version="1.1" xmlns="http://www.w3.org/2000/svg" xmlns:xlink="http://www.w3.org/1999/xlink" xml:space="preserve" xmlns:serif="http://www.serif.com/" style="fill-rule:evenodd;clip-rule:evenodd;stroke-linejoin:round;stroke-miterlimit:2;">
    <g>
        <g transform="matrix(2.34438,0,0,2.34438,-806.63,-572.192)">
            <path d="M351.676,590.748C364.864,610.804 375.288,616.622 397.595,608.039C413.413,601.95 423.696,599.826 433.208,605.423C432.553,599.417 432.206,593.32 432.206,587.146C432.206,586.389 432.225,585.636 432.235,584.881C418.955,580.022 406.104,589.603 388.672,599.311C403.043,587.286 417.167,569.93 432.878,572.213C433.813,561.678 435.714,551.415 438.513,541.523C426.95,533.41 412.052,539.333 392.702,544.212C409.682,536.299 427.819,523.21 442.421,529.476C446.033,519.637 450.551,510.234 455.857,501.354C446.781,490.471 430.834,492.325 410.855,492.013C429.363,488.778 450.318,480.803 462.781,490.695C468.782,482.184 475.556,474.257 482.996,467.009C477.061,454.121 461.195,451.792 441.972,446.289C460.661,447.95 482.974,445.667 492.434,458.479C500.389,451.817 508.969,445.88 518.072,440.765C515.648,426.805 500.902,420.446 483.779,410.188C501.373,416.644 523.494,420.21 529.373,434.967C538.731,430.606 548.551,427.08 558.744,424.494C559.994,410.419 547.421,400.472 533.522,386.133C548.871,396.902 569.291,406.079 571.171,421.842C580.538,420.214 590.165,419.356 599.99,419.356C600.751,419.356 601.509,419.375 602.268,419.385C607.111,406.103 597.524,393.239 587.809,375.797C599.856,390.164 617.229,404.311 614.938,420.03C625.475,420.964 635.736,422.867 645.627,425.666C653.745,414.092 647.805,399.197 642.938,379.861C650.829,396.85 663.945,414.993 657.685,429.577C667.521,433.189 676.921,437.706 685.799,443.011C696.686,433.945 694.84,418.008 695.138,398.041C698.373,416.516 706.36,437.476 696.464,449.939C704.97,455.937 712.891,462.706 720.135,470.141C733.029,464.21 735.356,448.323 740.83,429.091C739.189,447.804 741.456,470.107 728.667,479.581C735.328,487.536 741.265,496.115 746.38,505.216C760.338,502.805 766.696,488.092 776.963,470.949C770.522,488.553 766.955,510.653 752.188,516.537C756.549,525.898 760.075,535.721 762.661,545.917C776.741,547.155 786.69,534.595 801.008,520.714C790.221,536.041 781.064,556.436 765.307,558.316C766.937,567.687 767.794,577.317 767.794,587.146C767.794,587.903 767.775,588.656 767.766,589.411C781.048,594.274 793.907,584.701 811.369,575C796.971,587.008 782.823,604.357 767.116,602.087C766.559,608.344 765.668,614.506 764.443,620.549L776.162,620.549C800.33,609.169 818.328,557.556 848.324,583.542C835.136,563.487 824.712,557.688 802.395,566.272C793.757,569.601 786.773,571.749 780.662,572.111C799.506,553.233 804.332,502.583 838.93,519.397C821.012,503.424 809.457,500.539 790.142,514.597C782.638,520.049 776.435,523.932 770.615,525.861C783.906,502.737 775.494,452.583 813.24,459.874C791.807,449.085 779.903,449.26 764.885,467.877C759.054,475.083 754.069,480.436 748.947,483.802C755.832,458.032 734.666,411.741 773.016,409.016C749.517,404.158 738.086,407.422 728.371,429.245C724.605,437.713 721.18,444.174 717.109,448.754C717.068,422.083 684.695,382.866 721.033,370.302C697.061,371.695 686.863,377.806 683.11,401.408C681.68,410.555 680.054,417.677 677.315,423.15C670.366,397.393 628.945,367.885 660.783,346.351C637.993,353.912 629.708,362.459 632.217,386.236C633.193,395.438 633.458,402.737 632.227,408.733C618.849,385.659 571.185,367.889 596.371,338.836C576.347,352.02 570.528,362.438 579.132,384.744C582.443,393.38 584.586,400.364 584.949,406.476C566.075,387.632 515.432,382.814 532.247,348.216C516.273,366.159 513.374,377.708 527.426,397.023C532.881,404.51 536.764,410.702 538.694,416.516C515.57,403.229 465.421,411.657 472.708,373.92C461.956,395.354 462.109,407.242 480.715,422.276C487.928,428.108 493.286,433.09 496.656,438.21C470.894,431.32 424.569,452.48 421.854,414.134C416.992,437.613 420.251,449.085 442.126,458.778C450.594,462.544 457.049,465.969 461.622,470.04C434.948,470.055 395.708,502.457 383.142,466.129C384.529,490.064 390.625,500.304 414.278,504.024C423.42,505.467 430.538,507.101 436.008,509.846C410.258,516.783 380.752,558.208 359.2,526.367C366.776,549.146 375.288,557.453 399.065,554.903C408.277,553.943 415.582,553.685 421.583,554.923C398.513,568.303 380.729,615.932 351.676,590.748Z" style="fill:white;fill-rule:nonzero;"/>
        </g>
        <g transform="matrix(2.34438,0,0,2.34438,-806.63,-572.192)">
            <path d="M599.99,471.047L664.32,533.002L627.479,532.442L627.479,603.119L572.512,603.119L572.512,532.802L572.512,532.442L535.681,533.002L599.99,471.047ZM463.59,620.549L736.4,620.549C739.031,609.827 740.471,598.674 740.471,587.146C740.471,509.699 677.467,446.674 599.99,446.674C522.533,446.674 459.529,509.699 459.529,587.146C459.529,598.674 460.958,609.827 463.59,620.549Z" style="fill:white;fill-rule:nonzero;"/>
        </g>
        <g transform="matrix(2.34438,0,0,2.34438,-806.63,-572.192)">
            <path d="M463.395,522.425C463.505,522.232 463.609,522.051 463.717,521.865C463.609,522.051 463.502,522.237 463.395,522.423L463.395,522.425Z" style="fill:white;fill-rule:nonzero;"/>
        </g>
        <g transform="matrix(2.34438,0,0,2.34438,-806.63,-572.192)">
            <path d="M836.945,634.981L363.106,634.981C355.85,634.981 350,640.856 350,648.088C350,655.294 355.85,661.164 363.106,661.164L836.945,661.164C844.15,661.164 850,655.294 850,648.088C850,640.856 844.15,634.981 836.945,634.981Z" style="fill:white;fill-rule:nonzero;"/>
        </g>
    </g>
</svg>
